<svg width="114" height="32" viewBox="0 0 114 32" fill="none" xmlns="http://www.w3.org/2000/svg">
<path d="M56.0146 0.25H58.6746L62.1377 8.2V8.7H59.829L59.2769 7.3H55.4123L54.8602 8.7H52.6519V8.2L56.0146 0.25ZM56.2153 5.4H58.5241L57.4701 2.8H57.2191L56.2153 5.4Z" fill="#0E1E2E"/>
<path d="M62.79 4.75V0.25H64.9984V4.9C64.9984 6.15 65.6007 6.75 66.8554 6.8C68.1101 6.75 68.7124 6.15 68.7124 4.9V0.25H70.9208V4.7C70.9208 7.45 69.4151 8.85 66.8052 8.85C64.2957 8.85 62.79 7.5 62.79 4.75Z" fill="#0E1E2E"/>
<path d="M72.0752 0.25H80.0554V2.15H77.1946V8.7H74.9862V2.2H72.1254V0.25H72.0752Z" fill="#0E1E2E"/>
<path d="M80.7583 4.45005C80.7583 1.75005 82.7659 0.0500488 85.4259 0.0500488C88.1362 0.0500488 90.0936 1.75005 90.0936 4.45005H87.8351C87.8351 2.95005 86.8814 2.10005 85.4259 2.10005C83.9704 2.10005 83.0168 3.00005 83.0168 4.45005C83.0168 5.95005 83.9704 6.85005 85.4259 6.85005C86.8814 6.85005 87.8351 5.95005 87.8351 4.45005H90.0936C90.0936 7.15005 88.086 8.90005 85.4259 8.90005C82.7157 8.85005 80.7583 7.15005 80.7583 4.45005Z" fill="#0E1E2E"/>
<path d="M56.0146 11.75H58.6746L62.1377 19.7V20.2H59.829L59.2769 18.8H55.4123L54.8602 20.2H52.6519V19.7L56.0146 11.75ZM56.2153 16.9H58.5241L57.4701 14.3H57.2191L56.2153 16.9Z" fill="#0E1E2E"/>
<path d="M63.292 11.75H65.5004V20.2H63.292V11.75Z" fill="#0E1E2E"/>
<path d="M67.6587 11.75H71.4731C74.1332 11.75 76.1408 13.3 76.1408 15.95C76.1408 18.6 74.1332 20.2 71.4731 20.2H67.6587V11.75ZM69.867 13.7V18.3H71.4731C72.8784 18.3 73.8822 17.45 73.8822 16C73.8822 14.55 72.8784 13.7 71.4731 13.7H69.867Z" fill="#0E1E2E"/>
<path d="M56.0146 23.25H58.6746L62.1377 31.2V31.7H59.829L59.2769 30.3H55.4123L54.8602 31.7H52.6519V31.2L56.0146 23.25ZM56.2153 28.4H58.5241L57.4701 25.8H57.2191L56.2153 28.4Z" fill="#0E1E2E"/>
<path d="M63.292 23.25H67.1064C69.7665 23.25 71.7741 24.8 71.7741 27.45C71.7741 30.1 69.7665 31.7 67.1064 31.7H63.292V23.25ZM65.5003 25.2V29.8H67.1064C68.5117 29.8 69.5155 28.95 69.5155 27.5C69.5155 26.05 68.5117 25.2 67.1064 25.2H65.5003Z" fill="#0E1E2E"/>
<path d="M72.1255 23.75V23.25H74.4342L76.7931 29.15H76.9437L79.3026 23.25H81.511V23.75L78.1483 31.7H75.4882L72.1255 23.75Z" fill="#0E1E2E"/>
<path d="M82.6655 23.25H84.8739V31.7H82.6655V23.25Z" fill="#0E1E2E"/>
<path d="M94.2594 25.3V25.85H91.9507C91.7499 25.35 90.9971 25 90.2944 25C89.5416 25 88.9393 25.25 88.9393 25.7C88.9393 26.15 89.6921 26.35 90.445 26.5C92.0009 26.8 94.2092 27.25 94.2092 29.15C94.2092 30.85 92.6031 31.9 90.4952 31.9C88.6381 31.9 87.1324 31.05 86.48 29.55V29H88.7887C89.0397 29.5 89.7423 29.85 90.5454 29.85C91.3484 29.85 92.0009 29.65 92.0009 29.15C92.0009 28.7 91.248 28.55 90.445 28.4C88.9393 28.1 86.6807 27.65 86.6807 25.75C86.6807 24.15 88.337 23 90.2442 23C92.2016 23 93.6069 23.95 94.2594 25.3Z" fill="#0E1E2E"/>
<path d="M96.016 23.25H102.992V25.15H98.2244V26.3H102.741V28.2H98.2244V29.7H102.992V31.6H95.9658V23.25H96.016Z" fill="#0E1E2E"/>
<path d="M105.05 23.25H109.868C111.625 23.25 112.93 24.25 112.93 25.9C112.93 27.1 112.227 27.95 111.173 28.35V28.45L113.231 31.25V31.75H110.772L108.714 28.8H107.208V31.75H105V23.25H105.05ZM107.259 25.3V26.7H109.868C110.37 26.7 110.671 26.45 110.671 26C110.671 25.55 110.32 25.3 109.868 25.3H107.259Z" fill="#0E1E2E"/>
<path d="M24.4451 0C20.2292 0 16.9166 0.6 14.5075 5.4L0.103057 30.9C-0.198081 31.4 0.203437 32 0.755524 32H7.7319L24.3447 2.6C25.2481 1 26.8542 0 28.5105 0H24.4451Z" fill="#0E1E2E"/>
<path d="M25.3485 25.1L22.0359 31.45C21.8854 31.8 21.534 32 21.1325 32H11.4961L28.1089 2.6C28.9621 1 30.5682 0 32.2245 0H43.0655C43.6175 0 44.0693 0.45 44.0693 1L44.1194 31.1C44.1194 31.6 43.7179 32 43.216 32H34.6336C34.0815 32 33.8306 31.8 33.8808 31.25L34.1317 25.1H25.3485ZM34.6336 7.5C34.4328 7.5 34.2822 7.6 34.1819 7.8L28.9621 18.05H34.483L35.1355 8.05C35.1355 7.75 34.9347 7.5 34.6336 7.5Z" fill="#0E1E2E"/>
<path d="M27.5069 3.6C29.1631 1 31.5722 0 33.1783 0H28.2095H28.6612C27.0552 0 24.0438 0.65 22.1366 4.45L6.62793 32H11.4963L27.5069 3.6Z" fill="#FFC700"/>
</svg>
