<svg width="92" height="26" viewBox="0 0 92 26" fill="none" xmlns="http://www.w3.org/2000/svg">
<path d="M45.5117 0.203125H47.673L50.4868 6.6625V7.06875H48.611L48.1624 5.93125H45.0224L44.5738 7.06875H42.7795V6.6625L45.5117 0.203125ZM45.6749 4.3875H47.5507L46.6943 2.275H46.4904L45.6749 4.3875Z" fill="#4B5E7A"/>
<path d="M51.0169 3.85938V0.203125H52.8112V3.98125C52.8112 4.99688 53.3006 5.48438 54.32 5.525C55.3395 5.48438 55.8289 4.99688 55.8289 3.98125V0.203125H57.6232V3.81875C57.6232 6.05313 56.3998 7.19063 54.2793 7.19063C52.2403 7.19063 51.0169 6.09375 51.0169 3.85938Z" fill="#4B5E7A"/>
<path d="M58.5611 0.203125H65.045V1.74688H62.7206V7.06875H60.9263V1.7875H58.6019V0.203125H58.5611Z" fill="#4B5E7A"/>
<path d="M65.6159 3.61553C65.6159 1.42178 67.247 0.0405273 69.4083 0.0405273C71.6104 0.0405273 73.2008 1.42178 73.2008 3.61553H71.3657C71.3657 2.39678 70.5909 1.70615 69.4083 1.70615C68.2257 1.70615 67.4509 2.4374 67.4509 3.61553C67.4509 4.83428 68.2257 5.56553 69.4083 5.56553C70.5909 5.56553 71.3657 4.83428 71.3657 3.61553H73.2008C73.2008 5.80928 71.5696 7.23115 69.4083 7.23115C67.2063 7.19053 65.6159 5.80928 65.6159 3.61553Z" fill="#4B5E7A"/>
<path d="M45.5117 9.54688H47.673L50.4868 16.0063V16.4125H48.611L48.1624 15.275H45.0224L44.5738 16.4125H42.7795V16.0063L45.5117 9.54688ZM45.6749 13.7312H47.5507L46.6943 11.6188H46.4904L45.6749 13.7312Z" fill="#4B5E7A"/>
<path d="M51.4247 9.54688H53.219V16.4125H51.4247V9.54688Z" fill="#4B5E7A"/>
<path d="M54.9725 9.54688H58.0718C60.233 9.54688 61.8642 10.8062 61.8642 12.9594C61.8642 15.1125 60.233 16.4125 58.0718 16.4125H54.9725V9.54688ZM56.7668 11.1312V14.8687H58.0718C59.2136 14.8687 60.0292 14.1781 60.0292 13C60.0292 11.8219 59.2136 11.1312 58.0718 11.1312H56.7668Z" fill="#4B5E7A"/>
<path d="M45.5117 18.8906H47.673L50.4868 25.35V25.7563H48.611L48.1624 24.6187H45.0224L44.5738 25.7563H42.7795V25.35L45.5117 18.8906ZM45.6749 23.075H47.5507L46.6943 20.9625H46.4904L45.6749 23.075Z" fill="#4B5E7A"/>
<path d="M51.4247 18.8906H54.524C56.6853 18.8906 58.3164 20.15 58.3164 22.3031C58.3164 24.4563 56.6853 25.7563 54.524 25.7563H51.4247V18.8906ZM53.219 20.475V24.2125H54.524C55.6658 24.2125 56.4814 23.5219 56.4814 22.3438C56.4814 21.1656 55.6658 20.475 54.524 20.475H53.219Z" fill="#4B5E7A"/>
<path d="M58.6019 19.2969V18.8906H60.4777L62.3943 23.6844H62.5167L64.4333 18.8906H66.2276V19.2969L63.4954 25.7563H61.3341L58.6019 19.2969Z" fill="#4B5E7A"/>
<path d="M67.1655 18.8906H68.9598V25.7563H67.1655V18.8906Z" fill="#4B5E7A"/>
<path d="M76.5855 20.5562V21.0031H74.7096C74.5465 20.5969 73.9348 20.3125 73.3639 20.3125C72.7522 20.3125 72.2629 20.5156 72.2629 20.8813C72.2629 21.2469 72.8746 21.4094 73.4863 21.5313C74.7504 21.775 76.5447 22.1406 76.5447 23.6844C76.5447 25.0656 75.2398 25.9188 73.5271 25.9188C72.0182 25.9188 70.7948 25.2281 70.2647 24.0094V23.5625H72.1406C72.3444 23.9688 72.9154 24.2531 73.5678 24.2531C74.2203 24.2531 74.7504 24.0906 74.7504 23.6844C74.7504 23.3188 74.1387 23.1969 73.4863 23.075C72.2629 22.8313 70.4278 22.4656 70.4278 20.9219C70.4278 19.6219 71.7735 18.6875 73.3232 18.6875C74.9135 18.6875 76.0554 19.4594 76.5855 20.5562Z" fill="#4B5E7A"/>
<path d="M78.0128 18.8906H83.6811V20.4344H79.807V21.3687H83.4772V22.9125H79.807V24.1312H83.6811V25.675H77.972V18.8906H78.0128Z" fill="#4B5E7A"/>
<path d="M85.353 18.8906H89.2678C90.6951 18.8906 91.7553 19.7031 91.7553 21.0437C91.7553 22.0187 91.1844 22.7094 90.3281 23.0344V23.1156L92 25.3906V25.7969H90.0018L88.3299 23.4H87.1065V25.7969H85.3122V18.8906H85.353ZM87.1473 20.5562V21.6938H89.2678C89.6756 21.6938 89.9203 21.4906 89.9203 21.125C89.9203 20.7594 89.6348 20.5562 89.2678 20.5562H87.1473Z" fill="#4B5E7A"/>
<path d="M19.8616 0C16.4362 0 13.7448 0.4875 11.7874 4.3875L0.0837342 25.1062C-0.160941 25.5125 0.165293 26 0.613864 26H6.28217L19.7801 2.1125C20.5141 0.8125 21.819 0 23.1648 0H19.8616Z" fill="#4B5E7A"/>
<path d="M20.5957 20.3938L17.9042 25.5531C17.7819 25.8375 17.4964 26 17.1702 26H9.34061L22.8385 2.1125C23.5318 0.8125 24.8367 0 26.1824 0H34.9907C35.4393 0 35.8063 0.365625 35.8063 0.8125L35.8471 25.2688C35.8471 25.675 35.5208 26 35.1131 26H28.1399C27.6913 26 27.4874 25.8375 27.5282 25.3906L27.732 20.3938H20.5957ZM28.1398 6.09375C27.9767 6.09375 27.8544 6.175 27.7728 6.3375L23.5318 14.6656H28.0175L28.5476 6.54063C28.5476 6.29688 28.3845 6.09375 28.1398 6.09375Z" fill="#4B5E7A"/>
<path d="M22.3491 2.925C23.6949 0.8125 25.6523 0 26.9572 0H22.9201H23.2871C21.9821 0 19.5354 0.528125 17.9858 3.61562L5.38501 26H9.34059L22.3491 2.925Z" fill="#FFC700"/>
</svg>
