<svg width="46" height="46" viewBox="0 0 46 46" fill="none" xmlns="http://www.w3.org/2000/svg">
<ellipse cx="30.6667" cy="15.3333" rx="12.7778" ry="12.7778" fill="#FFC700"/>
<path d="M5.8889 29.6111H8.53335C9.31112 29.6111 10.0889 29.9222 10.7111 30.5444L14.4445 34.2777H5.8889" stroke="#4B5E7A" stroke-miterlimit="10" stroke-linecap="round" stroke-linejoin="round"/>
<path d="M6.66667 37.3889V40.5C6.66667 41.4334 7.28889 42.0556 8.22223 42.0556H12.8889C13.8222 42.0556 14.4445 41.4334 14.4445 40.5V38.1667" stroke="#4B5E7A" stroke-miterlimit="10" stroke-linecap="round" stroke-linejoin="round"/>
<path d="M23 38.9445H30L33.1111 37.3889H40.1111C40.1111 37.3889 40.8889 34.4334 40.8889 31.1667C40.8889 27.9 39.9556 26.0334 37.7778 24.9445C35.6 23.8556 30.4667 23.3889 23 23.3889C15.5333 23.3889 10.4 23.8556 8.22223 24.9445C6.04445 26.0334 5.11111 27.9 5.11111 31.1667C5.11111 34.4334 5.88889 37.3889 5.88889 37.3889H12.8889L16 38.9445H23Z" stroke="#4B5E7A" stroke-miterlimit="10" stroke-linecap="round" stroke-linejoin="round"/>
<path d="M40.1111 29.6111H37.4667C36.6889 29.6111 35.9111 29.9222 35.2889 30.5444L31.5556 34.2777H40.1111" stroke="#4B5E7A" stroke-miterlimit="10" stroke-linecap="round" stroke-linejoin="round"/>
<path d="M23 34.2777H27.6667L31.5556 29.6111H23H14.4444L18.3333 34.2777H23Z" stroke="#4B5E7A" stroke-miterlimit="10" stroke-linecap="round" stroke-linejoin="round"/>
<path d="M37.7778 24.9444C37.7778 24.9444 34.0444 16.3889 33.1111 15.6111C32.1778 14.8333 28.9111 14.0555 23.7778 14.0555H22.2222C17.0889 14.0555 13.8222 14.8333 12.8889 15.6111C11.9555 16.3889 8.22221 24.9444 8.22221 24.9444" stroke="#4B5E7A" stroke-miterlimit="10" stroke-linecap="round" stroke-linejoin="round"/>
<path d="M39.3334 37.3889V40.5C39.3334 41.4334 38.7111 42.0556 37.7778 42.0556H33.1111C32.1778 42.0556 31.5556 41.4334 31.5556 40.5V38.1667" stroke="#4B5E7A" stroke-miterlimit="10" stroke-linecap="round" stroke-linejoin="round"/>
</svg>
