<svg width="244" height="136" viewBox="0 0 244 136" fill="none" xmlns="http://www.w3.org/2000/svg">
<circle opacity="0.3" cx="149" cy="68" r="68" fill="#00BCD4"/>
<circle opacity="0.3" cx="58.5" cy="99.5" r="14.5" fill="#00BCD4"/>
<circle opacity="0.3" cx="43.5" cy="44.5" r="8.5" fill="#00BCD4"/>
<path d="M53 68L82 68" stroke="#0E1E2E" stroke-width="6" stroke-miterlimit="10" stroke-linecap="round" stroke-linejoin="round"/>
<path d="M39.9901 68.1094L40.7723 68.1094" stroke="#0E1E2E" stroke-width="6" stroke-miterlimit="10" stroke-linecap="round" stroke-linejoin="round"/>
<path d="M73.4554 100.178L71.1089 100.178" stroke="#0E1E2E" stroke-width="6" stroke-miterlimit="10" stroke-linecap="round" stroke-linejoin="round"/>
<path d="M60.1584 100.178L3 100.178" stroke="#0E1E2E" stroke-width="6" stroke-miterlimit="10" stroke-linecap="round" stroke-linejoin="round"/>
<path d="M5 37L97 37" stroke="#0E1E2E" stroke-width="6" stroke-miterlimit="10" stroke-linecap="round" stroke-linejoin="round"/>
<path d="M182.178 76.7129L201.733 92.3565" stroke="#0E1E2E" stroke-width="6" stroke-miterlimit="10" stroke-linecap="round" stroke-linejoin="round"/>
<path d="M108.653 92.3565L146.98 76.7129" stroke="#0E1E2E" stroke-width="6" stroke-miterlimit="10" stroke-linecap="round" stroke-linejoin="round"/>
<path d="M132.119 44.6436L152.645 63.7703C159.488 69.4275 168.698 70.5051 176.593 66.4642L216.594 44.6436" stroke="#0E1E2E" stroke-width="6" stroke-miterlimit="10" stroke-linecap="round" stroke-linejoin="round"/>
<path d="M202.203 108H100.746C95.198 108 91.499 102.433 93.6127 97.1309L116.335 38.8087C118.713 32.7114 124.261 29 130.602 29H232.323C237.871 29 241.57 34.5671 239.457 39.8691L216.735 98.1913C214.357 104.023 208.544 108 202.203 108Z" stroke="#0E1E2E" stroke-width="6" stroke-miterlimit="10" stroke-linecap="round" stroke-linejoin="round"/>
</svg>
