<svg width="409" height="250" viewBox="0 0 409 250" fill="none" xmlns="http://www.w3.org/2000/svg">
<circle cx="191" cy="125" r="74" fill="#FFC700"/>
<circle cx="326.654" cy="108" r="16" fill="#FFC700"/>
<circle cx="106.654" cy="56" r="10" fill="#FFC700"/>
<path d="M104.427 169.222H90.9353C90.6776 169.222 90.4206 169.197 90.1677 169.147L71.563 165.509C69.8718 165.179 68.5825 163.802 68.3631 162.093L65.5698 140.332C65.4488 139.39 65.6674 138.435 66.1865 137.639L74.7395 124.519C75.2869 123.679 76.1295 123.076 77.1006 122.828L136.019 107.781C136.339 107.699 136.647 107.579 136.937 107.421L184.882 81.4106C185.468 81.0929 186.123 80.9265 186.79 80.9265L281.38 80.9265C282.332 80.9265 283.253 81.266 283.977 81.884L313.593 107.161C313.978 107.49 314.421 107.742 314.899 107.905L336.345 115.216C337.859 115.732 338.92 117.1 339.043 118.695L341.653 152.621C341.756 153.968 341.173 155.276 340.102 156.099L324.11 168.393C323.411 168.93 322.554 169.222 321.672 169.222H314.175" stroke="#0E1E2E" stroke-width="6" stroke-miterlimit="10" stroke-linecap="round" stroke-linejoin="round"/>
<path d="M266.598 169.222H151.842" stroke="#0E1E2E" stroke-width="6" stroke-miterlimit="10" stroke-linecap="round" stroke-linejoin="round"/>
<path d="M301.914 112.493L288.53 121.212C287.881 121.635 287.122 121.861 286.347 121.861H142" stroke="#0E1E2E" stroke-width="6" stroke-miterlimit="10" stroke-linecap="round" stroke-linejoin="round"/>
<path d="M290.09 188.609C277.265 188.609 266.869 178.213 266.869 165.388C266.869 152.563 277.265 142.166 290.09 142.166C302.915 142.166 313.311 152.563 313.311 165.388C313.311 178.213 302.915 188.609 290.09 188.609Z" stroke="#0E1E2E" stroke-width="6" stroke-miterlimit="10" stroke-linecap="round" stroke-linejoin="round"/>
<path d="M290.09 169.978C287.555 169.978 285.499 167.923 285.499 165.388C285.499 162.852 287.555 160.797 290.09 160.797C292.625 160.797 294.68 162.852 294.68 165.388C294.68 167.923 292.625 169.978 290.09 169.978Z" stroke="#0E1E2E" stroke-width="6" stroke-miterlimit="10"/>
<path d="M128.35 188.609C115.525 188.609 105.129 178.213 105.129 165.388C105.129 152.563 115.525 142.166 128.35 142.166C141.175 142.166 151.572 152.563 151.572 165.388C151.572 178.213 141.175 188.609 128.35 188.609Z" stroke="#0E1E2E" stroke-width="6" stroke-miterlimit="10" stroke-linecap="round" stroke-linejoin="round"/>
<path d="M128.35 169.978C125.815 169.978 123.76 167.923 123.76 165.388C123.76 162.852 125.815 160.797 128.35 160.797C130.885 160.797 132.94 162.852 132.94 165.388C132.94 167.923 130.885 169.978 128.35 169.978Z" stroke="#0E1E2E" stroke-width="6" stroke-miterlimit="10"/>
<path d="M257.201 158.353H162.307C161.341 158.353 160.409 158.702 159.68 159.336L151.23 166.691" stroke="#0E1E2E" stroke-width="6" stroke-linecap="round" stroke-linejoin="round"/>
<path d="M328.073 142.549L325.235 143.524V143.524L328.073 142.549ZM317.663 121.474C317.125 119.907 317.959 118.201 319.526 117.663C321.093 117.124 322.799 117.959 323.338 119.526L317.663 121.474ZM340.201 148.25H331.856V142.25H340.201V148.25ZM325.235 143.524L317.663 121.474L323.338 119.526L330.91 141.575L325.235 143.524ZM331.856 148.25C328.866 148.25 326.206 146.351 325.235 143.524L330.91 141.575C331.049 141.979 331.429 142.25 331.856 142.25V148.25Z" fill="#0E1E2E"/>
<path d="M240.547 81L228.547 110" stroke="#0E1E2E" stroke-width="6" stroke-linecap="round" stroke-linejoin="round"/>
<path d="M217.547 132L207.547 157" stroke="#0E1E2E" stroke-width="6" stroke-linecap="round" stroke-linejoin="round"/>
<path d="M69.5 135H95.25L100 131" stroke="#0E1E2E" stroke-width="6" stroke-linecap="round" stroke-linejoin="round"/>
</svg>
