<svg width="24" height="24" viewBox="0 0 24 24" fill="none" xmlns="http://www.w3.org/2000/svg">
<path d="M7.55556 11.0222C8.8 13.5111 10.4 15.0222 12.8889 16.3556L15.0222 14.7556C15.2889 14.4889 15.6444 14.4 15.9111 14.5778C16.8889 14.9334 17.9556 15.1111 19.1111 15.1111C19.6444 15.1111 20 15.5556 20 16V19.1111C20 19.5556 19.6444 20 19.1111 20C10.7556 20 4 13.2444 4 4.88889C4 4.44444 4.35556 4 4.88889 4H8C8.53333 4 8.88889 4.44444 8.88889 4.88889C8.88889 6.04444 9.06667 7.11114 9.42223 8.08892C9.51112 8.35559 9.42222 8.71114 9.15556 8.97781L7.55556 11.0222Z" fill="#E4E7EB" stroke="#6F7E95" stroke-miterlimit="10" stroke-linecap="round" stroke-linejoin="round"/>
</svg>
