<svg width="36" height="36" viewBox="0 0 36 36" fill="none" xmlns="http://www.w3.org/2000/svg">
<circle cx="12" cy="12" r="10" fill="#FFC700"/>
<path d="M22.5653 5C20.3218 5.79565 18.5479 7.83043 17.7783 10.2174H22.5653V5Z" stroke="#4B5E7A" stroke-miterlimit="10" stroke-linecap="round" stroke-linejoin="round"/>
<path d="M29.087 5.65234V10.2176C29.087 11.6523 27.913 12.8263 26.4783 12.8263H22.5652H17.3478C17.3478 13.6219 17.4652 14.3784 17.687 15.0958L3.8087 28.9741C3.28696 29.4958 3 30.2002 3 30.9306C3 32.4567 4.23913 33.6958 5.76522 33.6958C6.49565 33.6958 7.2 33.4089 7.72174 32.8871L18.0391 22.5697C19.2652 21.3436 20.9217 20.6654 22.6565 20.6654H25.1739C29.4913 20.6654 33 17.1567 33 12.8393C33 9.93061 31.4217 7.00887 29.087 5.65234Z" stroke="#4B5E7A" stroke-miterlimit="10" stroke-linecap="round" stroke-linejoin="round"/>
<path d="M6.26057 31.0866C6.62076 31.0866 6.91275 30.7946 6.91275 30.4344C6.91275 30.0742 6.62076 29.7822 6.26057 29.7822C5.90039 29.7822 5.6084 30.0742 5.6084 30.4344C5.6084 30.7946 5.90039 31.0866 6.26057 31.0866Z" stroke="#4B5E7A" stroke-miterlimit="10"/>
<path d="M22.5651 15.4346L21.2607 18.0433" stroke="#4B5E7A" stroke-miterlimit="10" stroke-linecap="round" stroke-linejoin="round"/>
<path d="M25.174 15.4346L23.8696 18.0433" stroke="#4B5E7A" stroke-miterlimit="10" stroke-linecap="round" stroke-linejoin="round"/>
<path d="M27.7824 15.4346L26.478 18.0433" stroke="#4B5E7A" stroke-miterlimit="10" stroke-linecap="round" stroke-linejoin="round"/>
</svg>
